# xmcd CD database file
#
# Track frame offsets:
#	150
#	12160
#	26645
#	41110
#	54020
#	66387
#	78967
#	93880
#	106385
#	119825
#	135607
#	147219
#	162227
#	177042
#
# Disc length: 2530 seconds
#
# Revision: 0
# Processed by: cddbd v1.5.1PL0 Copyright (c) Steve Scherf et al.
# Submitted via: CDex 1.50
#
DISCID=b609e00e
DTITLE=Ella Fitzgerald - Ella and Herr Fellas
DYEAR=1900
DGENRE=Jazz
TTITLE0=Sing Me A Swing Song (And Let Me Dance)
TTITLE1=Into Each Life Some Rain Must Fall
TTITLE2=Goodnight My Love
TTITLE3=Big Boy Blues
TTITLE4=Stone Cold Dead In The Market (He Had It Coming)
TTITLE5=Mama Come Home
TTITLE6=All My Life
TTITLE7=It's Only A Paper Moon
TTITLE8=Cow-Cow Boogie
TTITLE9=Benny's Coming Home Saturday
TTITLE10=Oh Yes Take Another Guess
TTITLE11=And Her Tears Flowed Like Wine
TTITLE12=Dedicated To You
TTITLE13=Cry Out Of My Heart
EXTD=
EXTT0=
EXTT1=
EXTT2=
EXTT3=
EXTT4=
EXTT5=
EXTT6=
EXTT7=
EXTT8=
EXTT9=
EXTT10=
EXTT11=
EXTT12=
EXTT13=
PLAYORDER=
